<svg width="24" height="40" viewBox="0 0 24 40" fill="none" xmlns="http://www.w3.org/2000/svg">
<path d="M0 13.081H5.14828L12.9943 24.461L5.13841 37.0176H0L7.74908 24.3224L0 13.081Z" fill="#FC4C02"/>
<path d="M15.599 28.1783L13.3247 32.3846L18.5813 40H23.7081L15.599 28.1783Z" fill="#FC4C02"/>
<path d="M11.1356 7.8566C10.3689 8.955 8.79379 10.3964 9.94963 12.2016C11.1054 14.0068 11.6763 14.8998 12.362 15.8699C13.0505 16.8437 15.6122 20.5761 15.6122 20.5761C15.6122 20.5761 21.9667 9.95456 22.2598 9.46604C22.5529 8.97753 22.6506 8.00051 21.4782 6.73045C20.3058 5.4603 19.124 4.96843 17.8009 3.68488C16.2417 2.17224 17.1152 0 17.1152 0C17.1152 0 16.0088 1.3678 15.684 2.26104C15.3795 3.09835 15.4728 4.2096 16.3814 5.75603C16.9253 6.68167 17.4053 6.94287 17.3749 8.58676C17.3586 9.46586 16.5001 10.8154 16.5001 10.8154C16.5001 10.8154 16.6622 9.34568 16.1707 8.39398C15.2411 6.5938 14.184 7.34258 13.6586 4.75536C13.0327 6.33037 13.1252 7.39508 13.498 8.67054C14.0542 10.5732 12.606 12.1176 12.606 12.1176C12.606 12.1176 13.0497 10.8741 12.1855 9.87571C11.4743 9.05405 11.029 8.67054 11.1356 7.8566Z" fill="#FC4C02"/>
</svg>
