<svg width="175" height="69" viewBox="0 0 175 69" fill="none" xmlns="http://www.w3.org/2000/svg">
<path d="M59.424 50.688H46.656V67.2H37.344V50.688H0V43.968L34.368 0H44.736L11.808 42.432H37.632V27.84H46.656V42.432H59.424V50.688Z" fill="#FC4C02"/>
<path d="M154.001 28.224C160.592 28.864 165.617 30.912 169.073 34.368C172.529 37.76 174.257 42.112 174.257 47.424C174.257 51.264 173.297 54.752 171.377 57.888C169.457 60.96 166.577 63.424 162.737 65.28C158.961 67.072 154.321 67.968 148.817 67.968C144.017 67.968 139.409 67.264 134.993 65.856C130.577 64.384 126.96 62.368 124.144 59.808L128.561 52.224C130.865 54.4 133.809 56.16 137.393 57.504C140.977 58.784 144.785 59.424 148.817 59.424C153.809 59.424 157.681 58.368 160.433 56.256C163.249 54.144 164.657 51.232 164.657 47.52C164.657 43.808 163.281 40.928 160.529 38.88C157.777 36.832 153.617 35.808 148.049 35.808H142.673V29.088L159.569 8.352H127.216V0H171.569V6.528L154.001 28.224Z" fill="#FC4C02"/>
<path fill-rule="evenodd" clip-rule="evenodd" d="M92.456 68.736C87.144 68.736 82.408 67.392 78.248 64.704C74.152 61.952 70.92 57.984 68.552 52.8C66.184 47.616 65 41.472 65 34.368C65 27.264 66.184 21.12 68.552 15.936C70.92 10.752 74.152 6.816 78.248 4.128C82.408 1.376 87.144 0 92.456 0C97.704 0 102.376 1.376 106.472 4.128C110.632 6.816 113.896 10.752 116.264 15.936C118.632 21.12 119.816 27.264 119.816 34.368C119.816 41.472 118.632 47.616 116.264 52.8C114.38 56.9255 111.928 60.2809 108.908 62.8662L97.0287 45.563L93.6711 51.7673L101.431 63H108.751C108.023 63.6121 107.264 64.1801 106.472 64.704C102.376 67.392 97.704 68.736 92.456 68.736ZM89.8559 16.3663C90.0658 16.0952 90.2665 15.8359 90.4394 15.5885C90.3 16.6513 90.7993 17.2166 91.6442 18.1732L91.6443 18.1733L91.6443 18.1733C91.7537 18.2972 91.869 18.4277 91.9894 18.5667C93.2652 20.0392 92.6101 21.8734 92.6101 21.8734C92.6101 21.8734 94.7481 19.5955 93.927 16.789C93.3767 14.9077 93.2401 13.3373 94.1641 11.0142C94.6183 13.249 95.3417 13.7963 96.1389 14.3994C96.7029 14.8261 97.304 15.2808 97.8727 16.3811C98.5983 17.7849 98.359 19.9527 98.359 19.9527C98.359 19.9527 99.6263 17.9621 99.6504 16.6655C99.6858 14.7508 99.2514 14.1078 98.6718 13.2498C98.5173 13.0212 98.3526 12.7774 98.1837 12.4901C96.8423 10.2092 96.7046 8.57006 97.1541 7.33504C97.6337 6.0175 99.267 4 99.267 4C99.267 4 97.9775 7.20406 100.279 9.4352C101.192 10.3201 102.06 10.9498 102.901 11.5609C103.86 12.2574 104.786 12.9296 105.708 13.9274C107.439 15.8007 107.295 17.2419 106.862 17.9624C106.429 18.683 97.0481 34.3497 97.0481 34.3497C97.0481 34.3497 93.2663 28.8445 92.25 27.4082C91.2501 25.9949 90.4156 24.6927 88.7515 22.0956L88.7514 22.0955L88.7512 22.0952L88.6885 21.9974C87.2428 19.7414 88.6912 17.8706 89.8559 16.3663ZM74 23.2945H81.6004L93.1833 40.08L81.5858 58.601H74L85.4399 39.8756L74 23.2945Z" fill="#FC4C02"/>
</svg>
