<svg width="189" height="69" viewBox="0 0 189 69" fill="none" xmlns="http://www.w3.org/2000/svg">
<path d="M60.3376 51.688H47.5696V68.2H38.2576V51.688H0.913574V44.968L35.2816 1H45.6496L12.7216 43.432H38.5456V28.84H47.5696V43.432H60.3376V51.688Z" fill="#FC4C02"/>
<path d="M188.588 51.688H175.82V68.2H166.508V51.688H129.164V44.968L163.532 1H173.9L140.972 43.432H166.796V28.84H175.82V43.432H188.588V51.688Z" fill="#FC4C02"/>
<path fill-rule="evenodd" clip-rule="evenodd" d="M94.456 68.736C89.144 68.736 84.408 67.392 80.248 64.704C76.152 61.952 72.92 57.984 70.552 52.8C68.184 47.616 67 41.472 67 34.368C67 27.264 68.184 21.12 70.552 15.936C72.92 10.752 76.152 6.816 80.248 4.128C84.408 1.376 89.144 0 94.456 0C99.704 0 104.376 1.376 108.472 4.128C112.632 6.816 115.896 10.752 118.264 15.936C120.632 21.12 121.816 27.264 121.816 34.368C121.816 41.472 120.632 47.616 118.264 52.8C116.38 56.9255 113.928 60.2809 110.908 62.8662L99.0287 45.563L95.6711 51.7673L103.431 63H110.751C110.023 63.6121 109.264 64.1801 108.472 64.704C104.376 67.392 99.704 68.736 94.456 68.736ZM91.8559 16.3663C92.0658 16.0952 92.2665 15.8359 92.4394 15.5885C92.3 16.6513 92.7993 17.2166 93.6442 18.1732L93.6443 18.1733L93.6443 18.1733C93.7537 18.2972 93.869 18.4277 93.9894 18.5667C95.2652 20.0392 94.6101 21.8734 94.6101 21.8734C94.6101 21.8734 96.7481 19.5955 95.927 16.789C95.3767 14.9077 95.2401 13.3373 96.1641 11.0142C96.6183 13.249 97.3417 13.7963 98.1389 14.3994C98.7029 14.8261 99.304 15.2808 99.8727 16.3811C100.598 17.7849 100.359 19.9527 100.359 19.9527C100.359 19.9527 101.626 17.9621 101.65 16.6655C101.686 14.7508 101.251 14.1078 100.672 13.2498C100.517 13.0212 100.353 12.7774 100.184 12.4901C98.8423 10.2092 98.7046 8.57006 99.1541 7.33504C99.6337 6.0175 101.267 4 101.267 4C101.267 4 99.9775 7.20406 102.279 9.4352C103.192 10.3201 104.06 10.9498 104.901 11.5609C105.86 12.2574 106.786 12.9296 107.708 13.9274C109.439 15.8007 109.295 17.2419 108.862 17.9624C108.429 18.683 99.0481 34.3497 99.0481 34.3497C99.0481 34.3497 95.2663 28.8445 94.25 27.4082C93.2501 25.9949 92.4156 24.6927 90.7515 22.0956L90.7514 22.0955L90.7512 22.0952L90.6885 21.9974C89.2428 19.7414 90.6912 17.8706 91.8559 16.3663ZM76 23.2945H83.6004L95.1833 40.08L83.5858 58.601H76L87.4399 39.8756L76 23.2945Z" fill="#FC4C02"/>
</svg>
